<svg xmlns="http://www.w3.org/2000/svg" width="1440" height="90" viewBox="0 0 1440 90" overflow="hidden">
  <defs>
    <linearGradient id="bg" x1="0%" y1="0%" x2="100%" y2="100%">
      <stop offset="0%" style="stop-color:#0f172a"/>
      <stop offset="100%" style="stop-color:#1e3a5f"/>
    </linearGradient>
  </defs>
  <rect width="1440" height="90" fill="url(#bg)"/>
  <rect x="0" y="0" width="4" height="90" fill="#22c55e"/>
  <circle cx="1360" cy="45" r="55" fill="#22c55e" opacity="0.06"/>
  <circle cx="1420" cy="45" r="38" fill="#22c55e" opacity="0.05"/>
  <circle cx="52" cy="45" r="30" fill="#22c55e" opacity="0.15"/>
  <polygon points="56,20 43,48 52,48 48,70 65,42 56,42" fill="#22c55e"/>
  <text x="96" y="32" font-family="Arial,sans-serif" font-size="24" font-weight="bold" fill="#ffffff">GreenCharge</text>
  <text x="96" y="52" font-family="Arial,sans-serif" font-size="13" fill="#94a3b8">Thailand's Fastest EV Charging Network</text>
  <text x="96" y="72" font-family="Arial,sans-serif" font-size="12" fill="#22c55e">⚡ 500+ สถานีทั่วประเทศ</text>
  <line x1="420" y1="20" x2="420" y2="70" stroke="#334155" stroke-width="1"/>
  <text x="460" y="32" font-family="Arial,sans-serif" font-size="13" fill="#94a3b8">ชาร์จด่วน DC สูงสุด</text>
  <text x="460" y="52" font-family="Arial,sans-serif" font-size="22" font-weight="bold" fill="#22c55e">150 kW</text>
  <text x="460" y="72" font-family="Arial,sans-serif" font-size="11" fill="#64748b">รองรับ CCS2 · CHAdeMO · Type 2</text>
  <line x1="700" y1="20" x2="700" y2="70" stroke="#334155" stroke-width="1"/>
  <text x="740" y="32" font-family="Arial,sans-serif" font-size="13" fill="#94a3b8">ครอบคลุมทั่วประเทศ</text>
  <text x="740" y="52" font-family="Arial,sans-serif" font-size="22" font-weight="bold" fill="#ffffff">77 จังหวัด</text>
  <text x="740" y="72" font-family="Arial,sans-serif" font-size="11" fill="#64748b">บนมอเตอร์เวย์ · ห้างสรรพสินค้า · โรงแรม</text>
  <line x1="1000" y1="20" x2="1000" y2="70" stroke="#334155" stroke-width="1"/>
  <text x="1040" y="32" font-family="Arial,sans-serif" font-size="13" fill="#94a3b8">แอปครบครัน</text>
  <text x="1040" y="52" font-family="Arial,sans-serif" font-size="14" fill="#ffffff">จอง · ชาร์จ · จ่ายเงิน</text>
  <text x="1040" y="72" font-family="Arial,sans-serif" font-size="11" fill="#64748b">ผ่าน GreenCharge App</text>
  <line x1="1280" y1="20" x2="1280" y2="70" stroke="#334155" stroke-width="1"/>
  <text x="1320" y="32" font-family="Arial,sans-serif" font-size="13" fill="#94a3b8">ดาวน์โหลดแอป</text>
  <text x="1320" y="52" font-family="Arial,sans-serif" font-size="14" fill="#22c55e">iOS · Android</text>
  <text x="1320" y="72" font-family="Arial,sans-serif" font-size="11" fill="#64748b">greencharge.th</text>
  <text x="1430" y="10" font-family="Arial,sans-serif" font-size="9" fill="#475569" text-anchor="end">โฆษณา</text>
</svg>
